<svg xmlns="http://www.w3.org/2000/svg" width="275.723" height="173.989" viewBox="0 0 258.48992 163.1148"><path d="M35.37 152.994s-58.904-27.347-24.682-85.755C44.91 8.833 136.93.25 165.891.003c28.962-.246 68.916 15.085 85.105 46.287 16.19 31.202 2.497 53.218-6.925 64.077-21.628 24.93-146.222 68.97-208.7 42.627" fill="#f19639"/><path d="M239.563 90.787c-21.627 24.928-146.22 68.97-208.7 42.627 0 0-21.307-9.917-30.84-30.527-.77 35.328 35.348 52.107 35.348 52.107 62.479 26.343 187.072-17.697 208.7-42.627 8.762-10.1 21.185-29.86 9.864-57.672.06 16.602-8.083 28.844-14.372 36.092" fill="#e28129"/><path d="M243.18 108.103c-21.627 24.929-146.22 68.97-208.7 42.627 0 0-27.09-12.602-33.838-38.938 4.71 29.243 34.728 43.202 34.728 43.202 62.48 26.343 187.073-17.697 208.702-42.627 7.81-9.005 18.487-25.71 12.692-48.937 3.574 21.01-6.259 36.23-13.584 44.673" fill="#d8721e"/><path d="M217.858 40.03c-.417 18.629-26.307 33.159-57.828 32.452-31.52-.705-56.735-16.378-56.32-35.007.418-18.629 26.308-33.158 57.83-32.453 31.52.705 56.736 16.38 56.318 35.008" fill="#f6a43e"/><path d="M30.863 133.414s78.931 18.701 182.892-25.181c0 0-108.51 52.637-182.892 25.18" fill="#ffba65"/><path d="M104.994 61.398c-.44 4.249-3.127 7.451-5.997 7.152-2.871-.297-4.84-3.983-4.399-8.233.441-4.249 3.126-7.452 5.998-7.153 2.87.299 4.84 3.985 4.398 8.234m-63.132-1.481c-2.636 3.361-6.615 4.641-8.886 2.86-2.271-1.783-1.974-5.951.662-9.311 2.638-3.362 6.615-4.642 8.887-2.86 2.27 1.781 1.973 5.95-.663 9.311m44.467-14.472c-.442 4.25-3.128 7.452-5.998 7.153-2.871-.298-4.84-3.984-4.399-8.234.442-4.249 3.127-7.451 5.998-7.152 2.871.298 4.84 3.985 4.399 8.233m-5.246 88.867c-.442 4.249-3.128 7.451-5.998 7.152-2.871-.297-4.84-3.983-4.399-8.233.442-4.249 3.127-7.452 5.998-7.153 2.871.299 4.84 3.985 4.399 8.234m50.92-111.687c-.441 4.249-3.127 7.451-5.997 7.152-2.872-.297-4.84-3.983-4.4-8.233.442-4.25 3.127-7.452 5.998-7.153 2.872.299 4.84 3.985 4.4 8.234m-98.319 78.77c-.441 4.248-3.128 7.45-5.998 7.152-2.87-.297-4.84-3.984-4.398-8.234.441-4.248 3.126-7.45 5.997-7.152 2.871.299 4.84 3.985 4.399 8.234m35.877-9.355c-.442 4.248-3.128 7.45-5.998 7.152-2.871-.298-4.84-3.984-4.399-8.234.442-4.249 3.127-7.451 5.998-7.153 2.871.3 4.84 3.985 4.399 8.234m54.731 6.393c2.133 3.702 1.835 7.87-.666 9.312-2.5 1.44-6.256-.392-8.39-4.093-2.132-3.701-1.835-7.87.666-9.311 2.5-1.441 6.258.391 8.39 4.092m23.029-44.383c2.133 3.701 1.835 7.87-.666 9.311-2.5 1.441-6.256-.391-8.39-4.093-2.133-3.7-1.835-7.87.666-9.31 2.5-1.442 6.258.39 8.39 4.092m29.132-30.729c2.132 3.701 1.835 7.87-.666 9.311-2.5 1.442-6.257-.39-8.39-4.092-2.133-3.701-1.835-7.869.666-9.31 2.5-1.443 6.257.39 8.39 4.091m-1.986 56.654c2.133 3.701 1.835 7.87-.666 9.311-2.5 1.441-6.256-.391-8.39-4.093-2.132-3.7-1.835-7.87.666-9.31 2.5-1.442 6.258.39 8.39 4.092m41.322-55.611c2.133 3.7 1.835 7.87-.666 9.31-2.5 1.442-6.256-.39-8.39-4.092-2.133-3.7-1.835-7.868.666-9.31 2.5-1.442 6.258.39 8.39 4.092m18.138 49.648c2.132 3.701 1.835 7.87-.667 9.311-2.5 1.442-6.256-.39-8.39-4.092-2.132-3.701-1.835-7.87.667-9.311 2.5-1.442 6.257.391 8.39 4.092m-26.715-9.555c2.133 3.701 1.835 7.87-.666 9.311-2.5 1.441-6.256-.391-8.39-4.092-2.133-3.702-1.835-7.87.666-9.312 2.5-1.44 6.258.392 8.39 4.093m-31.171 53.4c2.132 3.702 1.835 7.87-.667 9.312-2.5 1.441-6.256-.392-8.39-4.093-2.132-3.701-1.835-7.87.667-9.31 2.5-1.442 6.257.39 8.39 4.091" fill="#f5e7c5"/></svg>