<svg xmlns="http://www.w3.org/2000/svg" width="294.181" height="190.043" viewBox="0 0 275.79503 178.16531"><path d="M275.556 101.63c-4.438 48.702-69.67 82.566-145.697 75.636C53.833 170.335-4.2 125.237.239 76.535 4.679 27.833 69.909-6.03 145.936.9c76.027 6.93 134.06 52.03 129.62 100.73" fill="#f19639"/><path d="M131.769 156.322C61.277 149.897 6.294 110.654 2.194 66.154c-.95 3.378-1.632 6.835-1.955 10.38-4.44 48.702 53.593 93.8 129.62 100.73 76.027 6.93 141.258-26.932 145.697-75.633.324-3.546.278-7.069-.045-10.564-12.077 43.027-73.251 71.68-143.742 65.255" fill="#e28129"/><path d="M130.327 172.144C55.792 165.351-1.406 121.868.559 74.274c-.102.755-.25 1.498-.32 2.26-4.439 48.703 53.594 93.8 129.621 100.732 76.027 6.93 141.258-26.933 145.697-75.635.07-.763.057-1.52.093-2.282-6.672 47.167-70.79 79.589-145.323 72.795" fill="#d8721e"/><path d="M46.499 128.488s61.868 31.816 146.128 24.486c0 0-79.038 19.039-146.128-24.486" fill="#ffba65"/></svg>