<svg xmlns="http://www.w3.org/2000/svg" width="327.937" height="300.458" viewBox="0 0 307.44125 281.67975"><defs><clipPath id="b"><path d="M316.879 297.155H496.76v-80.966H316.879v80.966z"/></clipPath><clipPath id="a"><path d="M314.088 246.646h185.156v-91.902H314.088v91.902z"/></clipPath></defs><path d="M204.546 176.45c-13.647-4.304-28.403-7.334-43.931-8.75-40.31-3.674-77.581 4.122-104.369 19.514 27.528-10.053 84.14-25.218 148.3-10.763" fill="#ffba65"/><g clip-path="url(#a)" opacity=".36" transform="matrix(1.25 0 0 -1.25 -342.465 475.11)"><path d="M411.27 154.778c40.148.854 74.176 17.403 87.974 40.14-14.92 26.214-51.92 46.92-96.78 51.01-33.489 3.052-64.337-3.804-85.913-17.072-1.695-4.734-2.562-9.658-2.454-14.708.721-33.916 44.227-60.497 97.172-59.37" fill="#2d2a29"/></g><path d="M278.729 164.08c5.837 42.002-42.581 83.438-108.148 92.552-65.566 9.113-123.451-17.547-129.288-59.549-5.838-42 42.58-83.437 108.147-92.55 65.566-9.113 123.451 17.547 129.289 59.548" fill="#7d5b51"/><path d="M168.07 238.57c-60.792 8.45-114.95-13.866-127.17-50.637-.137 3.04-.033 6.094.392 9.151 5.839 42 63.723 68.661 129.289 59.547 65.566-9.113 113.986-50.55 108.147-92.55-.425-3.058-1.157-6.023-2.117-8.91-1.73 38.71-47.748 74.95-108.54 83.4" fill="#5f4034"/><path d="M169.968 252.215c-64.28 8.935-121.14-16.525-128.85-57.104.062.658.083 1.314.175 1.972 5.837 42.001 63.722 68.662 129.288 59.548 65.567-9.113 113.985-50.55 108.148-92.55-.091-.658-.25-1.296-.37-1.945 3.65 41.143-44.113 81.144-108.391 90.08" fill="#493130"/><path d="M90.584 231.85s58.509 14.689 128.22-8.087c0 0-62.998 31.636-128.22 8.087m97.676-128.576c-12.37-.948-25.43-.602-38.82 1.26-34.763 4.83-64.703 18.75-84.295 37.022 21.268-13.908 66.09-37.859 123.116-38.282" fill="#956e5f"/><g clip-path="url(#b)" opacity=".36" transform="matrix(1.25 0 0 -1.25 -342.465 475.11)"><path d="M481.437 276.25c-24.41 2.184-55.68 7.657-81.975 20.905-1.97-.195-3.948-.417-5.938-.693-34.03-4.731-62.27-20.35-76.645-39.911 8.572-.561 18.504-1.915 29.845-4.532 47.368-10.931 70.445-35.83 70.445-35.83s12.146 20.648 35.223 22.47c13.064 1.03 30.02 4.013 44.368 11.25-1.683 10.063-7.098 18.998-15.323 26.34" fill="#2d2a29"/></g><path d="M0 169.795l2.074 4.175c-.139.937 28.856-11.8 76.33-2.088 47.726 9.764 93.521 41.561 98.835 50.481 0 0 13.769-25.482 36.628-28.483 50.48-6.625 70.597-21.24 78.188-28.64 7.592-7.402 15.385-19.927 15.385-19.927v-4.365s-12.602 38.4-83.85 45.244c-.746.506-28.54-1.446-47.476 28.39.064-.362-27.789-28.445-76.08-41.68C97.89 172.113 36.53 153.83 0 169.795" fill="#ee752d"/><path d="M135.122 102.234s-13.663 18.007-34.918 16.973c-21.255-1.032-63.767 15.668-81.985 33.128L0 169.795s28.846-13.664 88.058 0c59.21 13.664 88.057 44.787 88.057 44.787s15.181-25.81 44.028-28.087c28.846-2.278 72.875-12.145 87.298-45.546 0 0-107.793 6.072-172.318-38.715" fill="#f8b426"/><path d="M201.72 188.962c-15.372 4.175-25.62 22.584-25.62 22.584s-6.262-6.262-18.408-14.424c-12.145-8.16-30.175-14.422-30.175-14.422l-.076.149c32.651 14.46 48.674 31.733 48.674 31.733s15.182-25.81 44.028-28.087a191.85 191.85 0 0 0 19.742-2.588c-.313.013-22.9.909-38.164 5.055M100.204 85.208c-3.27-.16-7.08.146-11.19.763 1.758-.048 11.838-.307 15.413.008 3.923.346 10.628-.793 16.702-4.081 6.072-3.29 13.993-13.664 13.993-13.664S121.46 86.24 100.204 85.208" fill="#ffcf7b"/><path d="M145.252 139.71c-35.218-4.227-62.08-21.723-59.997-39.082 2.083-17.357 32.322-28.004 67.54-23.777 35.217 4.225 62.078 21.722 59.995 39.08-2.082 17.358-32.32 28.005-67.538 23.778m9.368-68.837c-40.842-4.901-76.123 9.222-78.802 31.544-2.679 22.322 28.26 44.391 69.104 49.292 40.842 4.901 76.123-9.222 78.802-31.545 2.679-22.322-28.26-44.39-69.104-49.291" fill="#f5e7c5"/><path d="M152.772 76.777c-35.277-4.233-65.567 6.429-67.654 23.812-.11.922-.122 1.844-.072 2.764 4.744-15.767 33.662-25.12 67.07-21.111 33.408 4.009 59.293 19.937 60.173 36.379.266-.883.472-1.78.583-2.702 2.086-17.385-24.821-34.91-60.1-39.142" fill="#e0cfaa"/><path d="M145.576 146.252c-39.164-4.699-69.2-25.184-69.244-46.541a22.516 22.516 0 0 0-.513 2.706c-2.68 22.322 28.26 44.39 69.102 49.291 40.844 4.901 76.125-9.222 78.804-31.545.11-.917.142-1.835.14-2.75-5.095 20.74-39.125 33.538-78.289 28.839" fill="#e0cfaa"/><path d="M93.663 83.084C67.645 77.922 48.615 63.34 51.16 50.516c2.545-12.824 25.7-19.035 51.718-13.872 26.02 5.163 45.05 19.744 42.504 32.57-2.545 12.823-25.7 19.033-51.719 13.87m10.92-50.793c-30.176-5.988-57.29 2.527-60.562 19.018-3.274 16.493 18.536 34.715 48.711 40.703 30.174 5.989 57.289-2.528 60.561-19.019 3.273-16.491-18.536-34.715-48.71-40.702" fill="#f5e7c5"/><path d="M102.867 36.588c-26.064-5.172-49.26 1.048-51.808 13.891a11.99 11.99 0 0 0-.212 2.057c4.438-11.487 26.536-16.808 51.218-11.91 24.683 4.897 43.074 18.253 42.79 30.563.249-.642.454-1.3.589-1.98 2.549-12.845-16.514-27.448-42.577-32.62" fill="#e0cfaa"/><path d="M93.532 87.981c-28.934-5.74-50.162-22.732-48.974-38.66a16.86 16.86 0 0 0-.538 1.99c-3.272 16.49 18.537 34.714 48.712 40.702 30.175 5.987 57.29-2.528 60.562-19.02.134-.678.211-1.36.263-2.043-4.985 15.175-31.092 22.773-60.025 17.031" fill="#e0cfaa"/><path d="M227.778 61.206c-26.195 4.173-49.099-2.91-51.156-15.822-2.058-12.911 17.51-26.761 43.706-30.935 26.196-4.173 49.1 2.91 51.156 15.822 2.058 12.91-17.51 26.76-43.706 30.935m-7.36-51.43c-30.38 4.84-52.864 22.223-50.219 38.827 2.646 16.605 29.419 26.141 59.799 21.3 30.38-4.84 52.864-22.224 50.217-38.829-2.645-16.603-29.417-26.14-59.797-21.298" fill="#f5e7c5"/><path d="M220.297 14.401c-26.241 4.181-45.842 18.053-43.782 30.984.108.685.288 1.351.513 2.002.183-12.312 19.067-24.962 43.917-28.921 24.85-3.96 46.73 2.195 50.73 13.841a11.89 11.89 0 0 0-.134-2.062c-2.06-12.931-25.003-20.025-51.244-15.844" fill="#e0cfaa"/><path d="M229.351 65.845c-29.131 4.641-54.93-3.94-59.336-19.293.025.684.076 1.369.185 2.051 2.645 16.604 29.417 26.14 59.797 21.3 30.38-4.84 52.864-22.225 50.219-38.828a17 17 0 0 0-.462-2.008c.583 15.961-21.272 32.136-50.403 36.778" fill="#e0cfaa"/><path d="M170.268 28.539c0 15.761-17.55 28.538-39.198 28.538S91.872 44.3 91.872 28.54C91.872 12.777 109.422 0 131.07 0s39.198 12.777 39.198 28.539" fill="#cdaa48"/><path d="M152.847 20.625c0 7.627-9.836 13.811-21.97 13.811-12.132 0-21.968-6.184-21.968-13.811 0-7.628 9.836-13.811 21.968-13.811 12.134 0 21.97 6.183 21.97 13.81" fill="#b8a33d"/><path d="M130.878 8.678c11.632 0 21.13 5.687 21.895 12.879.032-.31.075-.618.075-.933 0-7.626-9.836-13.81-21.97-13.81-12.134 0-21.97 6.184-21.97 13.81 0 .315.042.623.075.933.765-7.192 10.262-12.879 21.895-12.879" fill="#aa9437"/><path d="M131.07 50.541c-20.13 0-36.706-11.05-38.935-25.27a21.172 21.172 0 0 0-.264 3.268c0 15.761 17.55 28.539 39.2 28.539 21.648 0 39.198-12.778 39.198-28.539 0-1.106-.096-2.195-.264-3.269-2.229 14.221-18.805 25.271-38.935 25.271" fill="#4d4713"/><path d="M110.178 46.151s19.727 5.708 39.593.937c0 0-19.293 8.518-39.593-.937" fill="#e8c56d"/><path d="M282.084 70.263c-6.745 25.595-40.493 38.893-75.38 29.7-34.884-9.194-57.697-37.395-50.953-62.99 6.745-25.595 40.494-38.892 75.379-29.7 34.886 9.194 57.699 37.395 50.954 62.99" fill="#e52625"/><path d="M209.502 87.348c-32.437-8.547-54.422-33.53-51.927-57.57a35.734 35.734 0 0 0-1.824 5.195c-6.744 25.595 16.069 53.797 50.954 62.99 34.886 9.193 68.634-4.105 75.379-29.7.473-1.796.786-3.605.973-5.42-9.676 22.149-41.117 33.053-73.555 24.505" fill="#b52825"/><path d="M207.513 96.896c-34.12-8.991-56.673-36.165-51.337-61.3-.143.459-.301.91-.424 1.377-6.745 25.595 16.068 53.797 50.953 62.99 34.886 9.193 68.633-4.105 75.378-29.7.124-.467.208-.938.31-1.408-7.743 24.5-40.758 37.032-74.88 28.04" fill="#aa2121"/><path d="M170.145 64.042s28.576 28.423 73.698 25.253c0 0-42.656 9.154-73.698-25.253" fill="#f24444"/><path d="M174.254 40.234a12.623 12.623 0 0 0-1.61 3.612c-3.347 12.705 14.103 28.316 38.976 34.871 24.554 6.47 47.147 1.69 50.945-10.655l-88.311-27.828z" fill="#b52825"/><path d="M173.215 46.329a12.623 12.623 0 0 1 1.608-3.612l86.894 27.38c.336-.654.631-1.33.849-2.034l-88.313-27.829a12.654 12.654 0 0 0-1.607 3.613c-.65 2.463-.498 5.036.32 7.63-.252-1.748-.193-3.473.248-5.148" fill="#aa2121"/><path d="M268.13 57.667a12.634 12.634 0 0 0 1.653-3.592c3.51-12.66-13.74-28.493-38.528-35.363-24.47-6.78-47.122-2.288-51.077 10.007l87.951 28.948z" fill="#b52825"/><path d="M230.693 20.844c24.05 6.666 40.944 21.76 38.728 34.216.122-.328.268-.645.362-.985 3.509-12.66-13.74-28.493-38.529-35.363-24.468-6.782-47.122-2.288-51.076 10.007l.315.102c5.695-10.736 27.133-14.371 50.2-7.977" fill="#aa2121"/><path d="M187.965 56.261c-2.575 2.693-6.136 3.465-7.955 1.727-1.82-1.74-1.207-5.333 1.367-8.025 2.575-2.693 6.136-3.465 7.956-1.727 1.819 1.74 1.206 5.333-1.368 8.025m16.294 6.957c-.773 3.644-3.394 6.176-5.856 5.654-2.463-.522-3.833-3.9-3.062-7.543.773-3.645 3.395-6.176 5.858-5.655 2.462.523 3.832 3.9 3.06 7.544m22.595 4.877c-.444 3.699-2.829 6.454-5.327 6.155-2.5-.3-4.167-3.541-3.723-7.24.444-3.699 2.829-6.454 5.328-6.155 2.498.3 4.166 3.541 3.722 7.24m16.248-1.005c.843 3.629-.462 7.031-2.915 7.601-2.451.57-5.121-1.91-5.964-5.54-.842-3.628.463-7.032 2.914-7.6 2.453-.57 5.123 1.91 5.965 5.54m7.548-28.654c2.576-2.693 6.137-3.465 7.956-1.727 1.82 1.74 1.207 5.333-1.366 8.025-2.575 2.693-6.137 3.465-7.957 1.727-1.818-1.74-1.207-5.333 1.368-8.025m-19.174-6.707c.772-3.645 3.394-6.177 5.856-5.655 2.463.522 3.833 3.9 3.061 7.543-.772 3.645-3.395 6.176-5.857 5.655-2.463-.523-3.833-3.9-3.06-7.544m-16.825-5.237c.444-3.699 2.829-6.454 5.328-6.155 2.499.3 4.166 3.541 3.722 7.24-.442 3.699-2.828 6.454-5.327 6.155-2.499-.3-4.166-3.541-3.723-7.24m-19.476-.472c-.842-3.628.463-7.03 2.915-7.6 2.451-.57 5.121 1.91 5.964 5.54.842 3.628-.463 7.032-2.914 7.6-2.452.57-5.122-1.91-5.965-5.54" fill="#ffcd5c"/></svg>